<?xml version="1.0" encoding="UTF-8"?>
<svg width="296px" height="35px" viewBox="0 0 296 35" version="1.1" xmlns="http://www.w3.org/2000/svg" xmlns:xlink="http://www.w3.org/1999/xlink">
    <!-- Generator: Sketch 52.2 (67145) - http://www.bohemiancoding.com/sketch -->
    <title>Brand</title>
    <desc>Created with Sketch.</desc>
    <defs>
        <polygon id="path-1" points="0.227139053 0.188928571 13.7054497 0.188928571 13.7054497 15.4897959 0.227139053 15.4897959"></polygon>
        <polygon id="path-3" points="0.155327811 0.394473469 9.27526272 0.394473469 9.27526272 19.7142857 0.155327811 19.7142857"></polygon>
        <polygon id="path-5" points="0.316322485 0.188740816 12.5223757 0.188740816 12.5223757 15.4897959 0.316322485 15.4897959"></polygon>
        <polygon id="path-7" points="0.162295266 0.188693878 10.1367189 0.188693878 10.1367189 15.4897959 0.162295266 15.4897959"></polygon>
        <polygon id="path-9" points="0 0.0977052632 5.24969965 0.0977052632 5.24969965 5.33591579 0 5.33591579"></polygon>
        <polygon id="path-11" points="0.328468373 0.0977052632 6.07021154 0.0977052632 6.07021154 5.33591579 0.328468373 5.33591579"></polygon>
    </defs>
    <g id="DGA-Desktop" stroke="none" stroke-width="1" fill="none" fill-rule="evenodd">
        <g id="Home" transform="translate(-142.000000, -36.000000)">
            <g id="Header" transform="translate(142.000000, 36.000000)">
                <g id="Brand">
                    <g id="Goytia" transform="translate(46.000000, 5.000000)" fill="#000000">
                        <path d="M13.3043894,12.1104 L10.3673312,12.1104 L10.3673312,13.5046656 L13.3374476,13.8014625 C13.3723683,15.5582281 13.3956487,17.3023063 13.3956487,19.0681344 L13.3956487,20.1914313 C12.6804741,20.4198063 11.982527,20.5353531 11.1523471,20.5353531 C7.09969101,20.5353531 4.32233651,17.5392906 4.32233651,11.7691969 C4.32233651,5.98007188 7.29571217,3.0279625 11.0731937,3.0279625 C12.0709926,3.0279625 13.0082624,3.23322812 13.9427386,3.68680625 L14.6723471,7.3054625 L16.7904,7.3054625 L16.6688762,2.83765 C14.9270349,1.89107188 12.9128127,1.44610313 10.6499556,1.44610313 C4.08906667,1.44610313 9.31216931e-05,5.661525 9.31216931e-05,11.7691969 C9.31216931e-05,17.9969469 4.21524656,22.1362438 10.4045799,22.1362438 C13.0259556,22.1362438 15.0997757,21.5190875 17.2155005,20.3957906 L17.2155005,19.1229625 C17.2155005,17.2787438 17.2341249,15.4784781 17.2709079,13.6954313 L18.9917968,13.5046656 L18.9917968,12.1104 L17.3072254,12.1104 L13.3043894,12.1104 Z" id="Fill-1"></path>
                        <path d="M27.975619,20.6104812 C25.7649101,20.6104812 24.594836,18.6715594 24.594836,14.563075 C24.594836,10.4659188 25.7649101,8.45177812 27.975619,8.45177812 C30.1476825,8.45177812 31.3564021,10.4659188 31.3564021,14.563075 C31.3564021,18.6715594 30.1476825,20.6104812 27.975619,20.6104812 M27.975619,7.00721562 C24.0314497,7.00721562 20.6185397,9.78849687 20.6185397,14.53045 C20.6185397,19.2728563 23.8298413,22.0550438 27.975619,22.0550438 C32.0715767,22.0550438 35.3326984,19.3050281 35.3326984,14.53045 C35.3326984,9.75587187 31.8811429,7.00721562 27.975619,7.00721562" id="Fill-3"></path>
                        <path d="M48.356419,7.42558594 L45.437054,7.42558594 L45.437054,8.59510156 L47.7925672,8.95850781 L44.4471704,18.0554453 L41.0296042,8.93947656 L43.4232974,8.60325781 L43.4232974,7.42558594 L40.4620275,7.42558594 L36.394472,7.42558594 L35.4367153,7.42558594 L35.4367153,8.59510156 L36.9937101,8.84205469 L42.8054349,22.5835234 L42.7365249,22.7756484 C42.1945566,24.2668828 41.3848635,25.6443828 40.3074455,26.6353672 L40.124927,26.4160547 C39.3017312,25.4291484 38.5013503,25.1763047 37.6967788,25.1763047 C36.6365884,25.1763047 35.6620698,25.6896953 35.426472,26.7604297 C35.4828106,27.9725391 36.8307471,28.8611172 38.3923979,28.8611172 C41.0612656,28.8611172 42.6014984,26.7250859 44.3843132,22.1666484 L49.5977312,8.91410156 L51.303255,8.59510156 L51.303255,7.42558594 L50.1830011,7.42558594 L48.356419,7.42558594 Z" id="Fill-5"></path>
                        <path d="M60.104419,20.0918344 C59.1345566,20.0918344 58.4747894,19.4497563 58.4747894,17.9825375 L58.4747894,9.21955313 L62.168927,9.21955313 L62.168927,7.42563125 L58.5087788,7.42563125 L58.6293714,3.32349062 L56.1770116,3.32349062 L55.0148529,7.38213125 L52.5438688,7.692975 L52.5438688,9.21955313 L54.8030011,9.21955313 L54.8030011,15.5651156 C54.8030011,16.7223969 54.7727365,17.4328969 54.7727365,18.3087875 C54.7727365,20.9210531 56.2408,22.055225 58.681054,22.055225 C60.5644402,22.055225 61.9044614,21.3388344 62.6894772,20.1054281 L61.9654561,19.34735 C61.2735619,19.8462406 60.7194878,20.0918344 60.104419,20.0918344" id="Fill-7"></path>
                        <path d="M67.814709,4.24134062 C69.100254,4.24134062 70.1190053,3.36046562 70.1190053,2.12071562 C70.1190053,0.861934375 69.100254,9.0625e-05 67.814709,9.0625e-05 C66.5296296,9.0625e-05 65.5108783,0.861934375 65.5108783,2.12071562 C65.5108783,3.36046562 66.5296296,4.24134062 67.814709,4.24134062" id="Fill-9"></path>
                        <path d="M69.6730455,15.4034859 L69.6730455,11.4744391 L69.7643048,7.31429844 L69.2735534,7.00707969 L63.7612148,8.88573594 L63.7612148,9.99045469 L65.9486434,10.2573453 C66.0096381,11.4449859 66.0399026,12.3648297 66.0399026,13.9969859 L66.0399026,15.4034859 C66.0399026,16.6890016 66.0250032,18.5676578 65.9956698,20.0394078 L63.9996063,20.4232047 L63.9996063,21.6366734 L65.9486434,21.6366734 L69.7643048,21.6366734 L71.5638815,21.6366734 L71.5638815,20.4232047 L69.7182095,20.0588922 C69.687945,18.5844234 69.6730455,16.6948922 69.6730455,15.4034859" id="Fill-11"></path>
                        <path d="M78.715581,19.8860703 C77.5026709,19.8860703 76.5695915,19.2303984 76.5695915,17.7006484 C76.5695915,16.5673828 77.176745,15.5048047 79.2277503,14.7054922 C79.7441101,14.4898047 80.5286603,14.2351484 81.3667556,13.9981641 L81.3667556,18.6735078 C80.0453587,19.5928984 79.5052529,19.8860703 78.715581,19.8860703 Z M86.9312423,19.5267422 C86.584364,19.9676328 86.2933587,20.1796953 85.8761735,20.1796953 C85.3085968,20.1796953 84.9714963,19.8026953 84.9714963,18.8488672 L84.9714963,12.3709922 C84.9714963,8.51082031 83.435454,7.00689844 79.9019513,7.00689844 C76.1687026,7.00689844 73.811327,8.54389844 73.4444275,10.9087578 C73.594819,11.7706016 74.2056974,12.2486484 75.1639196,12.2486484 C76.1663746,12.2486484 76.8927238,11.6097422 77.0663958,10.1828516 L77.4235175,8.54616406 C77.9072847,8.46641406 78.3226074,8.44058594 78.7016127,8.44058594 C80.6809143,8.44058594 81.3667556,9.18597656 81.3667556,11.9527578 L81.3667556,12.7978359 C80.3140148,13.0629141 79.2431153,13.3628828 78.4641524,13.6089297 C74.0636868,14.9982109 73.0030307,16.4101484 73.0030307,18.3014922 C73.0030307,20.7542578 74.7513905,22.0551797 77.0454434,22.0551797 C78.9781841,22.0551797 79.9769143,21.2603984 81.4808296,19.7727891 C81.8291048,21.1652422 82.8827767,21.9985391 84.5007661,21.9985391 C85.9520677,21.9985391 86.9098243,21.4933047 87.6417608,20.1144453 L86.9312423,19.5267422 Z" id="Fill-13"></path>
                    </g>
                    <g id="&amp;-Associates" transform="translate(139.000000, 5.000000)">
                        <path d="M6.62135888,21.6508857 C3.47671391,21.6508857 1.58156598,19.2419878 1.58156598,16.7969469 C1.58156598,14.7630898 2.68242396,12.8339061 5.33330858,11.2591102 C6.42534112,12.5151918 7.15645947,13.3718245 8.3283855,14.7476 C9.62154527,16.213498 10.8770808,17.6155592 12.2580305,19.172049 C10.7846459,20.7970694 8.91225828,21.6508857 6.62135888,21.6508857 M3.5710068,5.34576327 C3.5710068,3.4123551 5.08851864,2.10886531 6.85685888,2.10886531 C8.64842396,2.10886531 9.84078787,3.32551837 9.84078787,5.19415102 C9.84078787,7.28574286 8.35393284,8.60331429 6.04027308,10.0781306 C5.75925237,9.75049796 5.46940621,9.40925306 5.15633521,9.03280408 C3.85016953,7.4603551 3.5710068,6.54317143 3.5710068,5.34576327 M13.7495305,18.5693551 C15.4895364,16.0806612 16.3623263,13.8398041 16.968495,10.5611306 L19.1990098,10.2978041 L19.1990098,9.43272245 L13.3951192,9.43272245 L13.3951192,10.2978041 L15.9456725,10.5620694 C15.4449447,13.6309265 14.683634,15.6840286 13.201424,17.9788653 C11.6644033,16.3205184 10.4097967,14.9569469 9.10641805,13.5107633 C8.11750385,12.4142735 7.34458077,11.5726612 6.52474349,10.636702 C9.40044467,9.04078367 11.1028263,7.46364082 11.1028263,5.18757959 C11.1028263,3.00868163 9.65266657,1.30621224 6.8689358,1.30621224 C4.29144172,1.30621224 2.28202751,2.93029388 2.28202751,5.51427347 C2.28202751,7.07076327 2.8960926,8.47517143 4.27332633,10.0452735 C4.47120207,10.2715184 4.65282041,10.4789878 4.8279358,10.6794163 C1.5625216,12.4081714 0.0352553254,14.4870898 0.0352553254,17.2325388 C0.0352553254,20.2957633 2.5203145,22.8590898 6.30550089,22.8590898 C9.32055118,22.8590898 11.3452938,21.5476204 12.8112464,19.7963347 C13.3356636,20.3891714 13.8809831,21.0073551 14.4551015,21.6630898 C15.1764654,22.4540082 16.0116311,22.7135796 17.3596015,22.7135796 C18.0066459,22.7135796 18.5789062,22.6394163 19.1911133,22.4971918 L19.2584654,21.6978245 L16.3460689,21.3669061 C15.3794506,20.3258041 14.5261695,19.4072122 13.7495305,18.5693551" id="Fill-15" fill="#BCBCBC"></path>
                        <path d="M27.9510166,14.2749735 L31.3251231,3.80434082 L34.7582207,14.2749735 L27.9510166,14.2749735 Z M32.1923391,1.54095306 L31.0877651,1.54095306 L24.580626,21.3284633 L22.0746645,21.5941367 L22.0746645,22.4596878 L24.2085639,22.4596878 L25.3140669,22.4596878 L28.4958716,22.4596878 L28.4958716,21.5941367 L25.679626,21.3251776 L27.6481645,15.2156265 L35.0666467,15.2156265 L37.073274,21.3336265 L33.8101822,21.5941367 L33.8101822,22.4596878 L37.4425491,22.4596878 L39.1723361,22.4596878 L41.6290609,22.4596878 L41.6290609,21.5941367 L38.8058479,21.3603816 L32.1923391,1.54095306 Z" id="Fill-17" fill="#BCBCBC"></path>
                        <path d="M49.5074882,14.5866939 L48.2161864,14.1027551 C46.165432,13.333898 45.2420118,12.6471837 45.2420118,11.1362245 C45.2420118,9.62667347 46.3424053,8.48653061 48.6072929,8.48653061 C49.5242101,8.48653061 50.4374112,8.70714286 51.3645473,9.246 L51.6924822,11.6872857 L52.7092663,11.6872857 L52.7947337,8.80055102 C51.4328284,7.96504082 50.316642,7.55808163 48.673716,7.55808163 C45.5304645,7.55808163 43.7825621,9.29059184 43.7825621,11.5042245 C43.7825621,13.5587347 45.2248254,14.703102 47.410284,15.5156122 L48.827929,16.0380408 C51.1234734,16.8726122 51.9279822,17.6400612 51.9279822,19.0716939 C51.9279822,20.7225306 50.634358,21.9307347 48.0034467,21.9307347 C46.7075,21.9307347 45.7812929,21.7091837 44.9670296,21.3167755 L44.4793077,18.6126327 L43.4253639,18.6126327 L43.5289467,21.8180816 C45.0023314,22.4958776 46.2564734,22.8591837 47.9421331,22.8591837 C51.6386006,22.8591837 53.3999734,20.9323469 53.3999734,18.7478163 C53.3999734,16.8782449 52.352068,15.6517347 49.5074882,14.5866939" id="Fill-19" fill="#BCBCBC"></path>
                        <path d="M62.1736722,14.5866939 L60.8823704,14.1027551 C58.831616,13.333898 57.9081959,12.6471837 57.9081959,11.1362245 C57.9081959,9.62667347 59.0085893,8.48653061 61.2734769,8.48653061 C62.1903941,8.48653061 63.1031308,8.70714286 64.0302669,9.246 L64.3586663,11.6872857 L65.3754503,11.6872857 L65.4609178,8.80055102 C64.0990124,7.96504082 62.982826,7.55808163 61.3399,7.55808163 C58.1966485,7.55808163 56.4487462,9.29059184 56.4487462,11.5042245 C56.4487462,13.5587347 57.8910095,14.703102 60.076468,15.5156122 L61.494113,16.0380408 C63.7896574,16.8726122 64.5941663,17.6400612 64.5941663,19.0716939 C64.5941663,20.7225306 63.300542,21.9307347 60.6696308,21.9307347 C59.373684,21.9307347 58.4474769,21.7091837 57.6332136,21.3167755 L57.1454917,18.6126327 L56.0915479,18.6126327 L56.1951308,21.8180816 C57.6685154,22.4958776 58.9226574,22.8591837 60.6083172,22.8591837 C64.3047846,22.8591837 66.0661574,20.9323469 66.0661574,18.7478163 C66.0661574,16.8782449 65.0182521,15.6517347 62.1736722,14.5866939" id="Fill-21" fill="#BCBCBC"></path>
                        <g id="Group-25" transform="translate(68.281065, 7.369388)">
                            <mask id="mask-2" fill="white">
                                <use xlink:href="#path-1"></use>
                            </mask>
                            <g id="Clip-24"></g>
                            <path d="M6.96652663,14.5615816 C3.8618284,14.5615816 1.92023077,12.1484592 1.92023077,7.90096939 C1.92023077,3.6530102 3.8618284,1.11690816 6.96652663,1.11690816 C10.046142,1.11690816 12.012358,3.6530102 12.012358,7.90096939 C12.012358,12.1484592 10.046142,14.5615816 6.96652663,14.5615816 M6.96652663,0.188928571 C3.6114645,0.188928571 0.227139053,2.70531633 0.227139053,7.90096939 C0.227139053,13.0961531 3.6114645,15.4900306 6.96652663,15.4900306 C10.2965059,15.4900306 13.7054497,13.0961531 13.7054497,7.90096939 C13.7054497,2.70531633 10.2965059,0.188928571 6.96652663,0.188928571" id="Fill-23" fill="#BCBCBC" mask="url(#mask-2)"></path>
                        </g>
                        <path d="M91.5403828,21.5958735 C88.3920219,21.5958735 86.1187734,19.0555469 86.1187734,15.0901592 C86.1187734,11.0266694 88.4198917,8.48634286 91.4637408,8.48634286 C92.2422379,8.48634286 92.9951876,8.64781224 93.799232,9.04162857 L94.4667142,11.0055469 C94.6436876,11.5552 94.9488621,11.9156898 95.592655,11.9156898 C96.1008148,11.9156898 96.4310722,11.6373429 96.5471964,11.0872204 C95.8453414,8.88485306 93.8280308,7.55836327 91.4623473,7.55836327 C87.8597083,7.55836327 84.5125426,10.3939347 84.5125426,15.2211184 C84.5125426,19.8164245 87.2191669,22.8589959 91.2435692,22.8589959 C93.797374,22.8589959 95.5466698,21.6634653 96.6024716,19.7488327 L96.1063888,19.4160367 C94.9470041,20.8443837 93.3231225,21.5958735 91.5403828,21.5958735" id="Fill-26" fill="#BCBCBC"></path>
                        <path d="M103.102457,16.002649 L103.102457,11.6889755 L103.175848,7.88364898 L102.80936,7.64942449 L98.8458065,8.61964898 L98.8458065,9.42277143 L101.55754,9.53589388 C101.618389,11.1660776 101.630466,12.7023837 101.630466,14.5207918 L101.630466,16.002649 C101.630466,17.503751 101.611422,19.7849755 101.573798,21.3630571 L98.9921231,21.6564245 L98.9921231,22.4595469 L101.539425,22.4595469 L103.193963,22.4595469 L105.503907,22.4595469 L105.503907,21.6564245 L103.159591,21.3691592 C103.121502,19.7901388 103.102457,17.5056286 103.102457,16.002649" id="Fill-28" fill="#BCBCBC"></path>
                        <path d="M102.227902,3.19117959 C102.992929,3.19117959 103.623251,2.6466898 103.623251,1.8186898 C103.623251,0.978016327 102.992929,0.4462 102.227902,0.4462 C101.462876,0.4462 100.832553,0.978016327 100.832553,1.8186898 C100.832553,2.6466898 101.462876,3.19117959 102.227902,3.19117959" id="Fill-30" fill="#BCBCBC"></path>
                        <path d="M112.321191,21.5711367 C110.632744,21.5711367 109.49612,20.6520755 109.49612,18.876851 C109.49612,17.5663204 110.322925,16.3792388 112.899025,15.3944633 C113.97991,14.9790551 115.424496,14.5542592 116.732984,14.2322592 L116.732984,19.0965245 C114.866635,20.8590755 113.761596,21.5711367 112.321191,21.5711367 M119.589641,21.7452796 C118.727534,21.7452796 118.229593,21.1439939 118.229593,19.1411163 L118.229593,12.3495449 C118.229593,8.93052449 116.708365,7.55803469 113.682632,7.55803469 C110.928164,7.55803469 108.892738,8.85776939 108.278673,11.1577694 C108.357638,11.6895857 108.681857,12.0054837 109.233679,12.0054837 C109.784572,12.0054837 110.11483,11.6956878 110.298771,11.0404224 L110.847342,9.07603469 C111.706661,8.65170816 112.535324,8.48648367 113.385818,8.48648367 C115.646525,8.48648367 116.732984,9.29758571 116.732984,12.5471571 L116.732984,13.4432184 C115.378975,13.7473816 113.911164,14.1139735 112.620791,14.5490959 C109.192803,15.7465041 107.901037,17.1480959 107.901037,19.1613 C107.901037,21.567851 109.595058,22.8591367 111.780052,22.8591367 C113.727688,22.8591367 114.98601,21.9311571 116.769679,20.0277898 C116.947117,21.7945653 117.711214,22.8215857 119.123286,22.8215857 C119.95938,22.8215857 120.690963,22.4582796 121.276694,21.6908306 L120.848428,21.1599531 C120.387646,21.5598714 120.034629,21.7452796 119.589641,21.7452796" id="Fill-32" fill="#BCBCBC"></path>
                        <g id="Group-36" transform="translate(121.233728, 3.144898)">
                            <mask id="mask-4" fill="white">
                                <use xlink:href="#path-3"></use>
                            </mask>
                            <g id="Clip-35"></g>
                            <path d="M6.65085444,18.6503714 C5.38231302,18.6503714 4.67674201,17.8646163 4.67674201,15.992698 L4.67674201,5.9018 L9.00213846,5.9018 L9.00213846,4.8132898 L4.70414734,4.8132898 L4.84767692,0.394473469 L3.73195503,0.394473469 L3.22936923,4.76775918 L0.155327811,4.99869796 L0.155327811,5.9018 L3.17966805,5.9018 L3.17966805,13.8391469 C3.17966805,14.819698 3.14947574,15.4111265 3.14947574,16.0579429 C3.11324497,18.4799837 4.11516509,19.7144735 6.28668876,19.7144735 C7.53757929,19.7144735 8.55111183,19.3122082 9.27526272,18.5649429 L8.86418284,17.9716367 C8.09125976,18.428351 7.51853491,18.6503714 6.65085444,18.6503714" id="Fill-34" fill="#BCBCBC" mask="url(#mask-4)"></path>
                        </g>
                        <g id="Group-39" transform="translate(131.452663, 7.369388)">
                            <mask id="mask-6" fill="white">
                                <use xlink:href="#path-5"></use>
                            </mask>
                            <g id="Clip-38"></g>
                            <path d="M9.90957988,6.76533265 L1.97922189,6.74890408 C2.25420414,3.33927143 4.38160059,1.1171898 6.92100592,1.1171898 C9.46923669,1.1171898 11.0016124,3.18953673 11.0016124,5.41584286 C11.0016124,6.29500612 10.7568225,6.76533265 9.90957988,6.76533265 M12.5223757,5.93404694 C12.5223757,2.63237347 10.3513166,0.188740816 6.98324852,0.188740816 C3.44471006,0.188740816 0.316322485,3.1792102 0.316322485,7.86557755 C0.316322485,12.9579653 3.39640237,15.4898429 7.04038166,15.4898429 C9.34057101,15.4898429 11.2700917,14.3975776 12.4373728,12.5970061 L11.9538314,12.1712714 C10.7870148,13.4625571 9.33546154,14.2267204 7.38782544,14.2267204 C4.46939053,14.2267204 2.0089497,12.1970878 1.95274556,7.65716939 L12.327287,7.67453673 C12.4489852,7.23800612 12.5223757,6.65925102 12.5223757,5.93404694" id="Fill-37" fill="#BCBCBC" mask="url(#mask-6)"></path>
                        </g>
                        <g id="Group-42" transform="translate(146.316568, 7.369388)">
                            <mask id="mask-8" fill="white">
                                <use xlink:href="#path-7"></use>
                            </mask>
                            <g id="Clip-41"></g>
                            <path d="M6.24441953,7.21730612 L4.95311775,6.73336735 C2.90236331,5.9645102 1.9789432,5.27779592 1.9789432,3.76683673 C1.9789432,2.25728571 3.07933669,1.11714286 5.34422426,1.11714286 C6.26114142,1.11714286 7.17387811,1.3377551 8.1010142,1.87661224 L8.42941361,4.31789796 L9.44619763,4.31789796 L9.53166509,1.43116327 C8.16975976,0.595653061 7.05357337,0.188693878 5.41064734,0.188693878 C2.26739586,0.188693878 0.519493491,1.92120408 0.519493491,4.13483673 C0.519493491,6.18934694 1.9617568,7.33371429 4.14721538,8.14622449 L5.56486036,8.66865306 C7.86040473,9.50322449 8.66491361,10.2706735 8.66491361,11.7023061 C8.66491361,13.3531429 7.37128935,14.5613469 4.74037811,14.5613469 C3.44443136,14.5613469 2.51822426,14.3397959 1.70396095,13.9473878 L1.21623905,11.2432449 L0.162295266,11.2432449 L0.265878107,14.4486939 C1.73926272,15.1264898 2.99340473,15.4897959 4.6790645,15.4897959 C8.37553195,15.4897959 10.1369047,13.5629592 10.1369047,11.3784286 C10.1369047,9.50885714 9.08899941,8.28234694 6.24441953,7.21730612" id="Fill-40" fill="#BCBCBC" mask="url(#mask-8)"></path>
                        </g>
                    </g>
                    <g id="Iso">
                        <path d="M17.537331,1.12492323 C9.53354096,1.12492323 2.99983477,8.03322651 2.9719194,16.5250204 C2.94400402,25.0466062 9.45583059,32.0031797 17.4879133,32.0325944 L17.5395944,32.0325944 C25.5430073,32.0325944 32.0770907,25.1242911 32.1050061,16.6328743 C32.1325442,8.11128856 25.6210949,1.15471503 17.5890122,1.12492323 L17.537331,1.12492323 Z M17.5395944,33.1578947 L17.4833865,33.1578947 C8.83150705,33.1258403 1.81607207,25.6628062 1.84625085,16.5212493 C1.8760524,7.41136985 8.91525317,0 17.537331,0 L17.5931618,0 C26.2454184,0.0316773555 33.2604762,7.49508857 33.2306746,16.6362683 C33.2004958,25.7465249 26.1612951,33.1578947 17.5395944,33.1578947 Z" id="Fill-1" fill="#BCBCBC"></path>
                        <path d="M18.3826121,33.1578947 L18.3792174,33.1578947 C17.9135799,33.1571405 17.5367699,32.9044759 17.5384673,32.593359 L17.6963201,0.560764614 C17.6980174,0.250779064 18.0759589,0 18.5404649,0 L18.5432938,0 C19.0094971,0.00113133412 19.386307,0.253795955 19.3846097,0.564158617 L19.2261911,32.5971301 C19.2244937,32.9071157 18.847118,33.1578947 18.3826121,33.1578947" id="Fill-3" fill="#BCBCBC"></path>
                        <path d="M30.8176532,18.4210526 L30.8153732,18.4210526 L2.41045604,18.2650474 C2.09771695,18.2633517 1.84501769,17.8846433 1.84615769,17.4188886 C1.84729768,16.9542643 2.10075695,16.5789474 2.41273604,16.5789474 L2.41501603,16.5789474 L30.8199332,16.7343874 C31.1326723,16.7360831 31.3857515,17.1153567 31.3846115,17.5811114 C31.3834716,18.0451705 31.1296323,18.4210526 30.8176532,18.4210526" id="Fill-5" fill="#BCBCBC"></path>
                        <path d="M17.5875074,1.12530034 C14.1699757,1.12530034 11.2684285,8.19123617 11.2421735,16.5548122 C11.2151891,24.9319643 14.0766244,32.0197726 17.4894157,32.0325944 L17.4992613,32.5952446 L17.4992613,32.0325944 C20.9069474,32.0325944 23.8084945,24.9670357 23.8351142,16.6030825 C23.8617339,8.22630753 21.0002987,1.13812213 17.5875074,1.12530034 M17.4992613,33.1578947 L17.4857691,33.1578947 C13.344765,33.1420561 10.1245108,25.8479678 10.1540477,16.5510411 C10.18322,7.26995308 13.4443154,0 17.5780264,0 C21.732158,0.0158386777 24.9524123,7.310304 24.9228754,16.6068536 C24.8933384,25.8879417 21.6326077,33.1578947 17.4992613,33.1578947" id="Fill-7" fill="#BCBCBC"></path>
                        <path d="M17.6433059,9.21052632 C17.6045743,9.21052632 17.5666022,9.21052632 17.5278706,9.21052632 C13.0604477,9.19404961 8.79503656,8.23203476 5.82561479,6.57125786 C5.5533545,6.41884835 5.45804442,6.07808015 5.61221133,5.80958476 C5.76637824,5.54146385 6.11192476,5.4467228 6.38456477,5.59913231 C9.18994687,7.16853839 13.2525867,8.07737842 17.5320475,8.09310619 C17.5696399,8.09310619 17.6068526,8.09348066 17.6444451,8.09348066 C21.8821365,8.09348066 25.9049056,7.21572168 28.6958583,5.68039242 C28.9700172,5.53022973 29.3144245,5.6272176 29.4666928,5.89608746 C29.6189611,6.16570626 29.520993,6.50572552 29.2479733,6.65626268 C26.2933606,8.28146488 22.0689595,9.21052632 17.6433059,9.21052632" id="Fill-9" fill="#BCBCBC"></path>
                        <path d="M28.0543025,28.5526316 C27.9656357,28.5526316 27.8754661,28.5305657 27.7920592,28.4836758 C25.0370015,26.9493104 21.133784,26.0599775 17.082538,26.0442162 L16.9732073,26.0442162 C12.9610348,26.0442162 9.09801788,26.9012384 6.35836417,28.4009288 C6.08334682,28.5518435 5.74558644,28.4399381 5.60206646,28.1518998 C5.45892218,27.8642556 5.5656229,27.5092316 5.83951313,27.3587109 C8.77566147,25.7514495 12.7235881,24.8684211 16.9679474,24.8684211 C17.0077723,24.8684211 17.0468458,24.8684211 17.0870465,24.8688151 C21.3761148,24.8853645 25.3646178,25.8003096 28.317673,27.4453983 C28.5911875,27.5978891 28.6948826,27.9537011 28.5498597,28.2405573 C28.4491703,28.43915 28.2549299,28.5526316 28.0543025,28.5526316" id="Fill-11" fill="#BCBCBC"></path>
                        <path d="M18.0015719,33.1578947 C17.9817344,33.1578947 17.9630414,33.1578947 17.9435854,33.1578947 C9.03656624,33.1260047 1.81573107,25.6629846 1.84625023,16.5212857 C1.86112833,12.1019141 3.5496013,7.9506416 6.60037364,4.83208855 C9.65000152,1.71501877 13.6960802,0 17.9985199,0 C18.0179759,0 18.0370504,0.000370814869 18.0565064,0.000370814869 C23.060124,0.0181699286 27.6917892,2.3568993 30.7643065,6.41658049 C31.0439384,6.78554128 30.9622996,7.30505291 30.5823359,7.5764894 C30.2023723,7.84792588 29.6686683,7.76931313 29.3890365,7.39998152 C26.6407854,3.76784988 22.507727,1.67571239 18.0504025,1.65976735 C18.0332355,1.65976735 18.015687,1.65976735 17.9985199,1.65976735 C14.1683644,1.65976735 10.5617617,3.19123276 7.83754442,5.97568161 C5.08814887,8.78571668 3.56714982,12.5328009 3.55379769,16.5268479 C3.52633044,24.7533757 9.98380492,31.4695746 17.9496893,31.4981274 C17.9668563,31.4981274 17.9840233,31.4981274 18.0011904,31.4981274 C21.8317275,31.4981274 25.4383302,29.966662 28.1625474,27.1822131 C30.9115615,24.3721781 32.432942,20.6250938 32.4462941,16.6310469 C32.4482016,16.1738321 32.8296912,15.8041297 33.3004493,15.8041297 L33.3027383,15.8041297 C33.7746409,15.805613 34.1553675,16.1782819 34.1538416,16.6366091 C34.1389635,21.0559807 32.4504905,25.2072531 29.3997182,28.3258062 C26.3500903,31.442876 22.3040116,33.1578947 18.0015719,33.1578947" id="Fill-13" fill="#FF0000"></path>
                        <path d="M31.4616968,17.5 L31.4575387,17.5 L18.3802989,17.4344961 C17.9130792,17.4325112 17.5362037,17.0327391 17.5384717,16.5420557 C17.5407398,16.0513723 17.9195053,15.6523942 18.3886152,15.6579521 L31.4658549,15.723456 C31.9326967,15.7254409 32.3099502,16.125213 32.3076821,16.6158964 C32.3054141,17.1049919 31.9270265,17.5 31.4616968,17.5" id="Fill-15" fill="#FF0000"></path>
                        <path d="M19.3846024,16.5853776 C19.3808123,17.60267 18.551546,18.4244457 17.5316394,18.4210421 C16.5124909,18.4176385 15.6885306,17.5898121 15.6923207,16.5725196 C15.6957318,15.554849 16.5249981,14.7330733 17.5449046,14.7368551 C18.5644322,14.7402587 19.3883924,15.5680851 19.3846024,16.5853776" id="Fill-17" fill="#FFFFFF"></path>
                        <path d="M17.5419674,15.5551525 C16.9748019,15.5551525 16.514759,16.0126341 16.5124218,16.5754492 C16.5116428,16.8486944 16.6175967,17.1063922 16.810807,17.3003457 C17.0036276,17.4939106 17.2607219,17.6015762 17.5345662,17.6023536 L17.5388511,18.4722294 L17.5388511,17.6023536 C18.1021212,17.6023536 18.562164,17.144872 18.5641117,16.5824455 C18.5652803,16.3088117 18.4593263,16.0515025 18.2661161,15.857549 C18.0732954,15.6635954 17.8158117,15.5563185 17.5419674,15.5551525 M17.5388511,19.3421053 L17.5287231,19.3421053 C16.7889929,19.3393845 16.0948385,19.0498145 15.5732488,18.5258679 C15.0520487,18.0023099 14.7669078,17.3073421 14.769245,16.5692303 C14.7746985,15.0510287 16.0165416,13.8157895 17.538072,13.8157895 C18.2879302,13.8181216 18.9820846,14.1080802 19.5032847,14.6320269 C20.0248744,15.1555848 20.3100153,15.8505527 20.3076781,16.5886645 C20.3022245,18.106866 19.059992,19.3421053 17.5388511,19.3421053" id="Fill-19" fill="#FF0000"></path>
                        <path d="M4.61537406,16.5853776 C4.61158399,17.60267 3.78231714,18.4244457 2.76240988,18.4210421 C1.74288163,18.4176385 0.919299884,17.5898121 0.923089952,16.5725196 C0.926501013,15.554849 1.75576786,14.7330733 2.77567512,14.7368551 C3.79520337,14.7402587 4.61878512,15.5680851 4.61537406,16.5853776" id="Fill-21" fill="#FFFFFF"></path>
                        <g id="Group-25" transform="translate(0.000000, 13.815789)">
                            <mask id="mask-10" fill="white">
                                <use xlink:href="#path-9"></use>
                            </mask>
                            <g id="Clip-24"></g>
                            <path d="M2.62814769,1.74638947 C2.09054769,1.74638947 1.65411692,2.18002105 1.65227077,2.71349474 C1.65153231,2.97249474 1.75159385,3.21675789 1.93473231,3.4006 C2.11787077,3.58407368 2.36156308,3.68612632 2.62113231,3.68686316 L2.62482462,4.51138947 L2.62482462,3.68686316 C3.15910154,3.68686316 3.59516308,3.25323158 3.59700923,2.72012632 C3.59774769,2.46075789 3.49768615,2.21686316 3.31454769,2.03302105 C3.13177846,1.84917895 2.88771692,1.74749474 2.62814769,1.74638947 M2.62482462,5.33591579 L2.61559385,5.33591579 C1.91442462,5.33333684 1.25608615,5.05886316 0.762055385,4.56223158 C0.268024615,4.06596842 -0.00225230769,3.40723158 -3.69230769e-05,2.7076 C0.00476307692,1.26854737 1.18224,0.0977052632 2.62445538,0.0977052632 C3.33522462,0.0999157895 3.99319385,0.374757895 4.48722462,0.871389474 C4.98125538,1.36765263 5.25190154,2.02638947 5.24968615,2.72602105 C5.24451692,4.16507368 4.06704,5.33591579 2.62482462,5.33591579" id="Fill-23" fill="#FF0000" mask="url(#mask-10)"></path>
                        </g>
                        <path d="M19.3846024,33.1643225 C19.3808123,34.1816149 18.551546,35.0037688 17.5316394,34.999987 C16.5124909,34.9965834 15.6885306,34.168757 15.6923207,33.1514645 C15.6957318,32.1341721 16.5249981,31.3123964 17.5449046,31.3158 C18.5644322,31.3192036 19.3883924,32.14703 19.3846024,33.1643225" id="Fill-26" fill="#FFFFFF"></path>
                        <path d="M17.5419674,31.2134359 C16.9748019,31.2134359 16.514759,31.6709175 16.5124218,32.2337326 C16.5116428,32.5069778 16.6175967,32.7642869 16.810807,32.9582405 C17.0036276,33.152194 17.2607219,33.2594709 17.5345662,33.260637 L17.5388511,34.1301242 L17.5388511,33.260637 C18.1021212,33.260637 18.562164,32.8027667 18.5641117,32.2403403 C18.5652803,31.9670951 18.4593263,31.709786 18.2661161,31.5158324 C18.0732954,31.3214902 17.8158117,31.2142133 17.5419674,31.2134359 M17.5388511,35 L17.5287231,35 C16.7889929,34.9976679 16.0948385,34.7077093 15.5732488,34.1841513 C15.0520487,33.6602046 14.7669078,32.9652368 14.769245,32.227125 C14.7746985,30.7089235 16.0165416,29.4736842 17.538072,29.4736842 C18.2879302,29.476405 18.9820846,29.7663636 19.5032847,30.2899216 C20.0248744,30.8138683 20.3100153,31.5084474 20.3076781,32.2465592 C20.3022245,33.7647608 19.059992,35 17.5388511,35" id="Fill-28" fill="#FF0000"></path>
                        <path d="M34.1538331,16.5853776 C34.1504221,17.60267 33.3211558,18.4244457 32.3012492,18.4210421 C31.2817216,18.4176385 30.4577614,17.5898121 30.4615515,16.5725196 C30.4653415,15.554849 31.2946078,14.7330733 32.3141354,14.7368551 C33.333663,14.7402587 34.1576232,15.5680851 34.1538331,16.5853776" id="Fill-30" fill="#FFFFFF"></path>
                        <g id="Group-34" transform="translate(29.538462, 13.815789)">
                            <mask id="mask-12" fill="white">
                                <use xlink:href="#path-11"></use>
                            </mask>
                            <g id="Clip-33"></g>
                            <path d="M3.20266154,1.74638947 C2.61466154,1.74638947 2.13771923,2.18002105 2.1357,2.71349474 C2.13448846,2.97249474 2.24433462,3.21675789 2.44464231,3.4006 C2.64454615,3.58407368 2.91148846,3.68612632 3.19498846,3.68686316 L3.19943077,4.51138947 L3.19943077,3.68686316 C3.78339231,3.68686316 4.26033462,3.25323158 4.26275769,2.72012632 C4.26356538,2.46075789 4.15371923,2.21686316 3.95341154,2.03302105 C3.75350769,1.84917895 3.48696923,1.74749474 3.20266154,1.74638947 M3.19943077,5.33591579 L3.19054615,5.33591579 C2.42202692,5.33333684 1.70237308,5.05886316 1.16202692,4.56223158 C0.621276923,4.06596842 0.325661538,3.40723158 0.328488462,2.7076 C0.333738462,1.26854737 1.62160385,0.0977052632 3.19862308,0.0977052632 C3.97602692,0.0999157895 4.69568077,0.374757895 5.23643077,0.871389474 C5.77677692,1.36765263 6.07239231,2.02638947 6.07037308,2.72602105 C6.06431538,4.16507368 4.77645,5.33591579 3.19943077,5.33591579" id="Fill-32" fill="#FF0000" mask="url(#mask-12)"></path>
                        </g>
                        <path d="M30.4615254,6.45379864 C30.4577354,7.47109109 29.6284691,8.29286673 28.6089415,8.28946315 C27.5894139,8.28605957 26.7654537,7.45823311 26.7692438,6.44094067 C26.7726549,5.42327005 27.6019211,4.6014944 28.6218277,4.60527616 C29.6413553,4.60867974 30.4653155,5.43650619 30.4615254,6.45379864" id="Fill-35" fill="#FFFFFF"></path>
                        <path d="M28.619088,5.42396221 C28.0514936,5.42396221 27.5910293,5.88144383 27.589471,6.44387026 C27.5883023,6.71750413 27.6942637,6.97481325 27.8874873,7.1687668 C28.0803214,7.36272035 28.337823,7.46999726 28.6116863,7.47116331 L28.615582,8.34065047 L28.615582,7.47116331 C29.1788911,7.47116331 29.6389659,7.01368169 29.6413033,6.45086658 C29.6420825,6.1776214 29.5361211,5.92031228 29.3428975,5.72597005 C29.1500634,5.5320165 28.8929514,5.42473958 28.619088,5.42396221 M28.615582,9.21052632 L28.6058429,9.21052632 C27.8656717,9.20819421 27.1714691,8.91823559 26.6502328,8.39467761 C26.1286069,7.87073095 25.8434463,7.17576312 25.8461732,6.43765131 C25.850848,4.91983846 27.0931668,3.68421053 28.6148028,3.68421053 C29.3643235,3.68693132 30.0585261,3.97650125 30.580152,4.50044791 C31.1017778,5.02400589 31.3869385,5.71897372 31.3846011,6.45708553 C31.3791472,7.97528707 30.1368284,9.21052632 28.615582,9.21052632" id="Fill-37" fill="#FF0000"></path>
                    </g>
                </g>
            </g>
        </g>
    </g>
</svg>